<?xml version="1.0" encoding="UTF-8" standalone="no"?>
<!-- Svg Vector Icons : http://www.onlinewebfonts.com/icon -->

<svg
   xmlns:dc="http://purl.org/dc/elements/1.1/"
   xmlns:cc="http://creativecommons.org/ns#"
   xmlns:rdf="http://www.w3.org/1999/02/22-rdf-syntax-ns#"
   xmlns:svg="http://www.w3.org/2000/svg"
   xmlns="http://www.w3.org/2000/svg"
   xmlns:sodipodi="http://sodipodi.sourceforge.net/DTD/sodipodi-0.dtd"
   xmlns:inkscape="http://www.inkscape.org/namespaces/inkscape"
   version="1.1"
   x="0px"
   y="0px"
   viewBox="0 0 1000 1000"
   enable-background="new 0 0 1000 1000"
   xml:space="preserve"
   id="svg42"
   sodipodi:docname="Arrow.svg"
   inkscape:version="0.92.2 5c3e80d, 2017-08-06"><defs
     id="defs46" /><sodipodi:namedview
     pagecolor="#ffffff"
     bordercolor="#666666"
     borderopacity="1"
     objecttolerance="10"
     gridtolerance="10"
     guidetolerance="10"
     inkscape:pageopacity="0"
     inkscape:pageshadow="2"
     inkscape:window-width="1920"
     inkscape:window-height="1051"
     id="namedview44"
     showgrid="false"
     inkscape:zoom="0.236"
     inkscape:cx="500"
     inkscape:cy="-791.3469"
     inkscape:window-x="0"
     inkscape:window-y="0"
     inkscape:window-maximized="1"
     inkscape:current-layer="svg42" /><metadata
     id="metadata2"> Svg Vector Icons : http://www.onlinewebfonts.com/icon <rdf:RDF><cc:Work
     rdf:about=""><dc:format>image/svg+xml</dc:format><dc:type
       rdf:resource="http://purl.org/dc/dcmitype/StillImage" /></cc:Work></rdf:RDF></metadata><g
     id="g40"
     transform="rotate(-90,499.9984,500.0668)"><g
       id="g8"><g
         id="g6"><path
           d="M 23.9,480.7 389.2,178.5 c 0,0 43.3,-45.8 43.3,3.9 0,49.8 0,170.3 0,170.3 0,0 29.4,0 74.2,0 128.6,0 362.3,0 457.4,0 0,0 25.9,-6.8 25.9,32.4 0,39.3 0,211.6 0,239.7 0,28.1 -21.6,27.4 -21.6,27.4 -92.5,0 -334.2,0 -458.5,0 -40.2,0 -66.5,0 -66.5,0 0,0 0,96.5 0,157.3 0,60.5 -45.5,14.9 -45.5,14.9 0,0 -341.2,-257.1 -377.1,-293 -26,-26 3.1,-50.7 3.1,-50.7 z"
           id="path4"
           inkscape:connector-curvature="0" /></g></g><g
       id="g10" /><g
       id="g12" /><g
       id="g14" /><g
       id="g16" /><g
       id="g18" /><g
       id="g20" /><g
       id="g22" /><g
       id="g24" /><g
       id="g26" /><g
       id="g28" /><g
       id="g30" /><g
       id="g32" /><g
       id="g34" /><g
       id="g36" /><g
       id="g38" /></g></svg>