<?xml version="1.0" encoding="UTF-8" standalone="no"?>
<!-- Generator: Adobe Illustrator 17.0.1, SVG Export Plug-In . SVG Version: 6.00 Build 0)  -->

<svg
   xmlns:osb="http://www.openswatchbook.org/uri/2009/osb"
   xmlns:dc="http://purl.org/dc/elements/1.1/"
   xmlns:cc="http://creativecommons.org/ns#"
   xmlns:rdf="http://www.w3.org/1999/02/22-rdf-syntax-ns#"
   xmlns:svg="http://www.w3.org/2000/svg"
   xmlns="http://www.w3.org/2000/svg"
   xmlns:xlink="http://www.w3.org/1999/xlink"
   xmlns:sodipodi="http://sodipodi.sourceforge.net/DTD/sodipodi-0.dtd"
   xmlns:inkscape="http://www.inkscape.org/namespaces/inkscape"
   version="1.1"
   x="0px"
   y="0px"
   width="86"
   height="86"
   viewBox="0 0 86 86"
   enable-background="new 0 0 86 86"
   xml:space="preserve"
   id="svg21"
   sodipodi:docname="harbour-weidenMonitor.svg"
   inkscape:version="0.92.2 5c3e80d, 2017-08-06"
   inkscape:export-filename="/home/fuxl/workdir/harbour/weidenMonitor/icons/256x256/harbour-weidenMonitor.png"
   inkscape:export-xdpi="285.76999"
   inkscape:export-ydpi="285.76999"><metadata
     id="metadata27"><rdf:RDF><cc:Work
         rdf:about=""><dc:format>image/svg+xml</dc:format><dc:type
           rdf:resource="http://purl.org/dc/dcmitype/StillImage" /><dc:title></dc:title></cc:Work></rdf:RDF></metadata><defs
     id="defs25"><linearGradient
       id="linearGradient1307"
       osb:paint="solid"><stop
         style="stop-color:#000000;stop-opacity:1;"
         offset="0"
         id="stop1305" /></linearGradient><linearGradient
       id="linearGradient1279"
       gradientUnits="userSpaceOnUse"
       x1="984.92108"
       y1="339.29901"
       x2="1071.6023"
       y2="252.46629"
       gradientTransform="matrix(0,0.9756,-0.9739,0,332.48008,-819.77114)"><stop
         offset="0.49807745"
         style="stop-color:#65DEEB"
         id="stop1275" /><stop
         offset="1"
         style="stop-color:#00A6D9"
         id="stop1277" /></linearGradient><linearGradient
       gradientTransform="matrix(0,0.98245437,-0.98074243,0,333.18466,-967.22018)"
       y2="252.46629"
       x2="1071.6023"
       y1="339.29901"
       x1="984.92108"
       gradientUnits="userSpaceOnUse"
       id="SVGID_1_-7"><stop
         id="stop1174"
         style="stop-color:#65DEEB"
         offset="0.0054" /><stop
         id="stop1176"
         style="stop-color:#00A6D9"
         offset="1" /></linearGradient><linearGradient
       inkscape:collect="always"
       xlink:href="#SVGID_1_"
       id="linearGradient1325"
       x1="3598.179"
       y1="2341.0825"
       x2="4255.479"
       y2="2341.0825"
       gradientUnits="userSpaceOnUse"
       gradientTransform="matrix(0.79229038,0,0,0.79229038,2107.7083,-517.06893)" /><linearGradient
       inkscape:collect="always"
       xlink:href="#linearGradient1279"
       id="linearGradient1332"
       gradientUnits="userSpaceOnUse"
       x1="970.09998"
       y1="990"
       x2="32.43018"
       y2="-17.032846" /><linearGradient
       inkscape:collect="always"
       xlink:href="#SVGID_1_"
       id="linearGradient1394"
       gradientUnits="userSpaceOnUse"
       x1="0.71689999"
       y1="85.283096"
       x2="85.283096"
       y2="0.71689999" /></defs><sodipodi:namedview
     pagecolor="#ffffff"
     bordercolor="#666666"
     borderopacity="1"
     objecttolerance="10"
     gridtolerance="10"
     guidetolerance="10"
     inkscape:pageopacity="0"
     inkscape:pageshadow="2"
     inkscape:window-width="1920"
     inkscape:window-height="1043"
     id="namedview23"
     showgrid="false"
     inkscape:zoom="1.9404326"
     inkscape:cx="-135.34708"
     inkscape:cy="94.729107"
     inkscape:window-x="0"
     inkscape:window-y="0"
     inkscape:window-maximized="1"
     inkscape:current-layer="svg21"
     fit-margin-top="0"
     fit-margin-left="0"
     fit-margin-right="0"
     fit-margin-bottom="0" /><g
     id="Layer_2"
     display="none"
     style="display:none"
     transform="translate(-1.6199815,-140.10096)" /><g
     id="Layer_1"
     transform="translate(-1.6199815,-140.10096)"><linearGradient
       id="SVGID_1_"
       gradientUnits="userSpaceOnUse"
       x1="0.71689999"
       y1="85.283096"
       x2="85.283096"
       y2="0.71689999"><stop
         offset="0"
         style="stop-color:#EB424A"
         id="stop3" /><stop
         offset="1"
         style="stop-color:#FF7500"
         id="stop5" /></linearGradient><path
       d="M 84.277,0.3 H 43 C 19.417,0.3 0.3,19.418 0.3,43 v 41.277 c 0,0.786 0.637,1.423 1.423,1.423 H 43 C 66.583,85.7 85.7,66.582 85.7,43 V 1.723 C 85.7,0.937 85.063,0.3 84.277,0.3 Z"
       id="path8"
       inkscape:connector-curvature="0"
       style="fill:url(#linearGradient1394)" /><g
       id="g12"><path
         d="m 75.022,12.586 c 0,-1.611 0,-1.611 -1.779,-1.611 0,0 -29.768,0 -30.244,0 -17.686,0 -32.024,12.983 -32.024,28.999 0,16.016 10.977,15.862 32.024,15.862 17.844,0 32.023,-12.983 32.023,-28.999 0,-0.432 0,-14.251 0,-14.251 z"
         id="path10"
         inkscape:connector-curvature="0"
         style="fill:#fcba03" /></g><path
       d="M 44.176,57.633 C 38.912,47.317 27.824,40.19 15.026,40.19 h -3.783 c -0.169,1.277 -0.266,2.574 -0.268,3.893 0.004,4.865 1.192,9.469 3.298,13.569 5.278,10.279 16.343,17.373 29.113,17.373 h 4.052 V 71.156 C 47.437,66.309 46.264,61.721 44.176,57.633 Z"
       id="path14"
       inkscape:connector-curvature="0"
       style="opacity:0.7;fill:#89e700" /><path
       d="m 0.3,54.763 c 7.055,-1.559 10.675,-5.385 10.675,-14.788 0,-6.308 -2.132,-12.141 -5.74,-16.9 C 2.089,29.024 0.3,35.802 0.3,43 Z"
       id="path16"
       inkscape:connector-curvature="0"
       style="fill:#fc8272" /><path
       d="M 7.824,57.652 C 9.836,53.553 10.971,48.949 10.975,44.083 10.973,42.764 10.88,41.466 10.719,40.19 H 7.104 c -2.319,0 -4.578,0.259 -6.752,0.744 C 0.319,41.619 0.3,42.307 0.3,43 v 24.415 c 3.113,-2.709 5.688,-6.021 7.524,-9.763 z"
       id="path18"
       inkscape:connector-curvature="0"
       style="opacity:0.6;fill:#d1a5ff" /></g><g
     id="g983"
     transform="matrix(0.05880785,0,0,0.05880785,-5.2029948,61.70899)" /><g
     id="g985"
     transform="matrix(0.05880785,0,0,0.05880785,-5.2029948,61.70899)" /><g
     id="g987"
     transform="matrix(0.05880785,0,0,0.05880785,-5.2029948,61.70899)" /><g
     id="g989"
     transform="matrix(0.05880785,0,0,0.05880785,-5.2029948,61.70899)" /><g
     id="g991"
     transform="matrix(0.05880785,0,0,0.05880785,-5.2029948,61.70899)" /><g
     id="g993"
     transform="matrix(0.05880785,0,0,0.05880785,-5.2029948,61.70899)" /><g
     id="g995"
     transform="matrix(0.05880785,0,0,0.05880785,-5.2029948,61.70899)" /><g
     id="g997"
     transform="matrix(0.05880785,0,0,0.05880785,-5.2029948,61.70899)" /><g
     id="g999"
     transform="matrix(0.05880785,0,0,0.05880785,-5.2029948,61.70899)" /><g
     id="g1001"
     transform="matrix(0.05880785,0,0,0.05880785,-5.2029948,61.70899)" /><g
     id="g1003"
     transform="matrix(0.05880785,0,0,0.05880785,-5.2029948,61.70899)" /><g
     id="g1005"
     transform="matrix(0.05880785,0,0,0.05880785,-5.2029948,61.70899)" /><g
     id="g1007"
     transform="matrix(0.05880785,0,0,0.05880785,-5.2029948,61.70899)" /><g
     id="g1009"
     transform="matrix(0.05880785,0,0,0.05880785,-5.2029948,61.70899)" /><g
     id="g1011"
     transform="matrix(0.05880785,0,0,0.05880785,-5.2029948,61.70899)" /><g
     style="display:none"
     id="Layer_2-3"
     display="none"
     transform="translate(-0.3,0.3)" /><path
     style="fill:url(#SVGID_1_-7);stroke-width:1.00702584"
     id="path1179"
     d="M 86,84.567002 V 43 C 86,19.251311 66.747681,0 42.999999,0 H 1.4329977 C 0.64147541,0 0,0.64147541 0,1.4329977 V 43 C 0,66.748689 19.252317,86 42.999999,86 H 84.567002 C 85.358525,86 86,85.358525 86,84.567002 Z"
     inkscape:connector-curvature="0" /><g
     id="g1183"
     transform="matrix(1.0070258,0,0,1.0070258,-0.30210773,-0.30210773)"><path
       id="path1181"
       d="m 47.355,74.551 h 25.621 c 1.104,0 1.998,-0.891 1.998,-1.991 V 44.724 c 0.031,-0.579 0.05,-1.162 0.05,-1.75 0,-17.604 -14.327,-31.876 -32,-31.876 -0.344,0 -0.685,0.015 -1.027,0.026 C 41.703,10.954 41.365,10.849 41,10.849 H 13.023 c -1.104,0 -1.998,0.891 -1.998,1.991 v 27.87 c 0,0.155 0.022,0.303 0.055,0.448 -0.034,0.602 -0.055,1.207 -0.055,1.817 0,17.604 14.327,31.876 32,31.876 1.47,-0.001 2.913,-0.108 4.33,-0.3 z"
       inkscape:connector-curvature="0"
       style="opacity:0.3;fill:#f9f8d9" /></g><path
     style="fill:#000000;fill-opacity:1;stroke-width:0.05880785"
     id="path969"
     d="m -206.27548,17.13528 c -1.17027,-0.54692 -2.36407,-0.81743 -3.57552,-0.81743 -1.21144,0 -2.36407,0.27051 -3.4579,0.81743 -1.09382,0.47046 -2.22293,0.70569 -3.39909,0.70569 -1.17028,0 -2.30527,-0.23523 -3.39909,-0.70569 -1.17028,-0.54692 -2.34056,-0.81743 -3.51671,-0.81743 -1.17028,0 -2.34056,0.27051 -3.51671,0.81743 -1.09383,0.47046 -2.22294,0.70569 -3.3991,0.70569 -1.17027,0 -2.30527,-0.23523 -3.39909,-0.70569 -1.09383,-0.54692 -2.24646,-0.81743 -3.4579,-0.81743 -1.21144,0 -2.39936,0.27051 -3.57552,0.81743 -1.09383,0.47046 -2.22294,0.70569 -3.39909,0.70569 -1.17028,0 -2.30527,-0.23523 -3.3991,-0.70569 -1.09382,-0.54692 -2.24646,-0.81743 -3.4579,-0.81743 -1.21144,0 -2.36407,0.27051 -3.4579,0.81743 -1.17028,0.47046 -2.34055,0.70569 -3.51671,0.70569 v 5.03395 c 1.17028,0 2.34055,-0.23523 3.51671,-0.70569 1.09383,-0.54692 2.24646,-0.81743 3.4579,-0.81743 1.21144,0 2.36408,0.27051 3.4579,0.81743 1.09383,0.47046 2.22294,0.70569 3.3991,0.70569 1.17027,0 2.30526,-0.23523 3.39909,-0.70569 1.17028,-0.54692 2.36408,-0.81743 3.57552,-0.81743 1.21144,0 2.36407,0.27051 3.4579,0.81743 1.09382,0.47046 2.22294,0.70569 3.39909,0.70569 1.17028,0 2.30527,-0.23523 3.3991,-0.70569 1.09382,-0.54692 2.24646,-0.81743 3.4579,-0.81743 1.21144,0 2.39936,0.27051 3.57552,0.81743 1.09382,0.47046 2.22293,0.70569 3.39909,0.70569 1.17028,0 2.30527,-0.23523 3.39909,-0.70569 1.09383,-0.54692 2.24646,-0.81743 3.4579,-0.81743 1.21145,0 2.39936,0.27051 3.57552,0.81743 1.09383,0.47046 2.22294,0.70569 3.3991,0.70569 v -5.03983 c -1.17028,0 -2.30527,-0.22935 -3.3991,-0.69981 z"
     inkscape:connector-curvature="0" /><path
     style="fill:#000000;fill-opacity:1;stroke-width:0.05880785"
     id="path971"
     d="m -252.19265,-6.17616 c 0.93505,0 1.73483,-0.31168 2.39936,-0.93504 0.66453,-0.62336 0.99386,-1.40551 0.99386,-2.34055 0,-0.93505 -0.32933,-1.71719 -0.99386,-2.34056 -0.66453,-0.62336 -1.46431,-0.93504 -2.39936,-0.93504 -0.93504,0 -1.71719,0.31168 -2.34055,0.93504 -0.62924,0.61749 -0.94093,1.39963 -0.94093,2.33468 0,0.93504 0.31169,1.71718 0.93505,2.34055 0.62924,0.62924 1.41139,0.94092 2.34643,0.94092 z"
     inkscape:connector-curvature="0" /><path
     style="fill:#000000;fill-opacity:1;stroke-width:0.05880785"
     id="path973"
     d="M -241.6484,-2.54183 -235.79114,-5 c 0.47046,-0.31168 0.7057,-0.74098 0.7057,-1.28789 0,-0.47046 -0.15879,-0.8586 -0.47047,-1.17028 -0.31168,-0.31168 -0.70569,-0.47046 -1.17027,-0.47046 -0.23523,0 -0.4293,0.0412 -0.58808,0.11762 l -5.27507,2.34055 h -7.84496 c -0.93505,0 -1.73483,0.32932 -2.39936,0.99385 -0.66453,0.66453 -0.99386,1.46432 -0.99386,2.39936 v 0.81743 l 3.62845,7.85085 c 0.54691,1.24672 1.59957,1.87597 3.16386,1.87597 h 9.48571 l 5.50441,5.3868 c 0.47046,0.38813 0.99385,0.60572 1.58193,0.64688 0.58808,0.0412 1.11147,-0.17642 1.58193,-0.64688 0.93505,-1.01738 0.89976,-1.99359 -0.11761,-2.92863 l -6.32773,-5.73965 c -0.23523,-0.23523 -0.74098,-0.35285 -1.52312,-0.35285 h -6.43946 l -2.92863,-7.14515 h 3.51671 z"
     inkscape:connector-curvature="0" /><path
     style="fill:#000000;fill-opacity:1;stroke-width:0.05880785"
     id="path975"
     d="m -204.98759,-1.01871 c -0.23523,-4.5282 -1.62309,-8.82706 -4.15771,-12.8848 -2.5405,-4.06362 -5.68084,-7.498 -9.4269,-10.30901 -3.75194,-2.81102 -7.80968,-5.13393 -12.18499,-6.96873 -4.36942,-1.84069 -8.66827,-3.02861 -12.8848,-3.57552 l 18.50683,46.38763 z m -24.94629,-7.73323 c -0.62336,0 -0.93504,-0.31168 -0.93504,-0.93505 0,-0.47046 0.15878,-0.74097 0.47046,-0.81742 0.8586,-0.31169 2.17001,-0.56456 3.92249,-0.75863 1.75835,-0.19406 3.946,-0.25287 6.55707,-0.17642 2.61695,0.0765 5.19273,0.79979 7.73323,2.16413 2.5405,1.36434 4.51056,3.34029 5.91607,5.91607 0.15878,0.31168 0.23523,0.54691 0.23523,0.69981 0,0.62337 -0.31168,0.93505 -0.93504,0.93505 -0.38813,0 -0.62336,-0.0765 -0.7057,-0.23523 -0.23523,-0.38814 -0.44693,-0.74098 -0.64688,-1.05266 -0.19407,-0.31169 -0.62336,-0.81743 -1.28789,-1.52313 -0.66453,-0.70569 -1.3467,-1.30553 -2.0524,-1.81716 -0.69981,-0.50575 -1.65838,-1.05266 -2.86982,-1.64074 -1.21144,-0.58808 -2.49933,-0.99385 -3.86368,-1.22908 -1.36434,-0.23523 -3.0286,-0.32933 -4.98102,-0.29404 -1.95242,0.0412 -3.98129,0.29404 -6.09249,0.75862 h -0.46459 z"
     inkscape:connector-curvature="0" /><g
     id="g1330"
     style="fill:url(#linearGradient1332);fill-opacity:1"
     transform="matrix(0.07402627,0,0,0.07402627,-337.43527,-57.462031)"><path
       style="fill:#ffffff;fill-opacity:1;stroke-width:0.79229039"
       id="path1299"
       d="m 4843.3119,1410.322 c 12.5973,0 23.3724,-4.1992 32.3254,-12.5974 8.9529,-8.3983 13.3897,-18.9358 13.3897,-31.5332 0,-12.5975 -4.4368,-23.1348 -13.3897,-31.5331 -8.953,-8.3983 -19.7281,-12.5975 -32.3254,-12.5975 -12.5975,0 -23.135,4.1992 -31.5332,12.5975 -8.4775,8.319 -12.6767,18.8564 -12.6767,31.4539 0,12.5973 4.1992,23.1349 12.5974,31.5331 8.4775,8.4775 19.015,12.6767 31.6125,12.6767 z"
       inkscape:connector-curvature="0" /><path
       style="fill:#ffffff;fill-opacity:1;stroke-width:0.79229039"
       id="path1301"
       d="m 4985.3694,1459.2855 78.9122,-33.1177 c 6.3383,-4.1991 9.5075,-9.9829 9.5075,-17.3512 0,-6.3383 -2.1392,-11.5674 -6.3384,-15.7665 -4.1991,-4.1991 -9.5074,-6.3384 -15.7665,-6.3384 -3.1692,0 -5.7838,0.5546 -7.9229,1.5846 l -71.0685,31.5331 h -105.6915 c -12.5975,0 -23.3726,4.4369 -32.3254,13.3898 -8.953,8.9529 -13.3898,19.728 -13.3898,32.3254 v 11.0129 l 48.8843,105.7707 c 7.3683,16.7966 21.5504,25.2741 42.6253,25.2741 h 127.7965 l 74.1583,72.5739 c 6.3382,5.229 13.3897,8.1605 21.3126,8.7152 7.9229,0.5545 14.9743,-2.377 21.3125,-8.7152 12.5975,-13.7067 12.1221,-26.8588 -1.5844,-39.4562 l -85.2505,-77.3275 c -3.1692,-3.1692 -9.9828,-4.7538 -20.5203,-4.7538 h -86.7558 l -39.4561,-96.2633 h 47.379 z"
       inkscape:connector-curvature="0" /><path
       style="opacity:1;fill:url(#linearGradient1325);fill-opacity:1;stroke-width:0.79229039"
       id="path1303"
       d="m 5479.2833,1479.8059 c -3.1691,-61.0064 -21.8673,-118.9228 -56.0149,-173.5909 -34.227,-54.7473 -76.5354,-101.017 -127.0042,-138.8884 -50.5481,-37.8716 -105.2162,-69.1671 -164.1626,-93.8865 -58.8671,-24.7987 -116.7835,-40.803 -173.5908,-48.1713 l 249.3339,624.9587 z m -336.0896,-104.1863 c -8.3982,0 -12.5973,-4.199 -12.5973,-12.5974 0,-6.3382 2.1391,-9.9828 6.3382,-11.0127 11.5674,-4.1992 29.2355,-7.6061 52.8458,-10.2207 23.6895,-2.6145 53.1627,-3.4068 88.3404,-2.3769 35.2568,1.0301 69.9592,10.7752 104.1862,29.1564 34.2268,18.3811 60.7686,45.0021 79.7044,79.7043 2.1391,4.1992 3.1691,7.3684 3.1691,9.4283 0,8.3983 -4.1991,12.5974 -12.5974,12.5974 -5.2291,0 -8.3983,-1.0299 -9.5075,-3.1691 -3.1691,-5.2292 -6.0214,-9.9829 -8.7152,-14.182 -2.6145,-4.1991 -8.3982,-11.0129 -17.3512,-20.5203 -8.9529,-9.5075 -18.1434,-17.5889 -27.6509,-24.4818 -9.4282,-6.8137 -22.3426,-14.182 -38.6638,-22.1049 -16.3212,-7.9229 -33.6723,-13.3897 -52.0534,-16.5588 -18.3812,-3.1692 -40.803,-4.4369 -67.107,-3.9615 -26.304,0.5546 -53.6381,3.9615 -82.0813,10.2205 h -6.2591 z"
       inkscape:connector-curvature="0" /></g><path
     inkscape:connector-curvature="0"
     d="m 71.480991,70.624308 c -1.178493,-0.550763 -2.38068,-0.823173 -3.600641,-0.823173 -1.219951,0 -2.38068,0.27241 -3.482195,0.823173 -1.101504,0.473765 -2.238547,0.710648 -3.422971,0.710648 -1.178502,0 -2.321466,-0.236883 -3.422971,-0.710648 -1.178502,-0.550763 -2.357004,-0.823173 -3.541419,-0.823173 -1.178502,0 -2.357003,0.27241 -3.541417,0.823173 -1.101515,0.473765 -2.238558,0.710648 -3.422981,0.710648 -1.178492,0 -2.321467,-0.236883 -3.422972,-0.710648 -1.101515,-0.550763 -2.262243,-0.823173 -3.482194,-0.823173 -1.219951,0 -2.416217,0.27241 -3.600641,0.823173 -1.101515,0.473765 -2.238558,0.710648 -3.422971,0.710648 -1.178502,0 -2.321466,-0.236883 -3.422981,-0.710648 -1.101505,-0.550763 -2.262243,-0.823173 -3.482194,-0.823173 -1.219952,0 -2.38068,0.27241 -3.482194,0.823173 -1.178503,0.473765 -2.356994,0.710648 -3.541418,0.710648 v 5.069317 c 1.178502,0 2.356994,-0.236883 3.541418,-0.710648 1.101514,-0.550762 2.262242,-0.823173 3.482194,-0.823173 1.219951,0 2.380689,0.272411 3.482194,0.823173 1.101515,0.473765 2.238558,0.710648 3.422981,0.710648 1.178492,0 2.321456,-0.236883 3.422971,-0.710648 1.178502,-0.550762 2.38069,-0.823173 3.600641,-0.823173 1.219951,0 2.380679,0.272411 3.482194,0.823173 1.101505,0.473765 2.238558,0.710648 3.422972,0.710648 1.178502,0 2.321466,-0.236883 3.422981,-0.710648 1.101505,-0.550762 2.262243,-0.823173 3.482194,-0.823173 1.219952,0 2.416218,0.272411 3.600641,0.823173 1.101505,0.473765 2.238548,0.710648 3.422971,0.710648 1.178502,0 2.321467,-0.236883 3.422971,-0.710648 1.101515,-0.550762 2.262244,-0.823173 3.482195,-0.823173 1.219961,0 2.416217,0.272411 3.600641,0.823173 1.101515,0.473765 2.238557,0.710648 3.422981,0.710648 v -5.075239 c -1.178502,0 -2.321466,-0.230961 -3.42298,-0.704726 z"
     id="path1376"
     style="opacity:0.3;vector-effect:none;fill:#f9f8d9;fill-opacity:1;stroke-width:1.00702584;stroke-linecap:butt;stroke-linejoin:miter;stroke-miterlimit:4;stroke-dasharray:none;stroke-dashoffset:0;stroke-opacity:1" /></svg>